<svg xmlns="http://www.w3.org/2000/svg" xmlns:xlink="http://www.w3.org/1999/xlink" zoomAndPan="magnify" preserveAspectRatio="xMidYMid meet" version="1.0" viewBox="53.25 94.76 268.59 149.72"><defs><g/><clipPath id="29c2f633b9"><path d="M 78.050781 94.789062 L 297 94.789062 L 297 195.230469 L 78.050781 195.230469 Z M 78.050781 94.789062 " clip-rule="nonzero"/></clipPath></defs><g fill="#3b393d" fill-opacity="1"><g transform="translate(51.640641, 244.040435)"><g><path d="M 4.78125 -26.875 L 1.6875 -27.40625 L 1.6875 -29.890625 L 14.5625 -29.890625 L 14.5625 -27.40625 L 10.703125 -26.875 L 10.703125 -2.859375 L 19.3125 -3.21875 L 21.84375 -10.75 L 25.109375 -10.296875 L 23.859375 0 L 1.609375 0 L 1.609375 -2.40625 L 4.78125 -2.8125 Z M 4.78125 -26.875 "/></g></g></g><g fill="#3b393d" fill-opacity="1"><g transform="translate(85.360563, 244.040435)"><g><path d="M 19.953125 0.40625 C 19.066406 0.40625 18.421875 0.21875 18.015625 -0.15625 C 17.617188 -0.53125 17.421875 -1.09375 17.421875 -1.84375 L 17.421875 -2.9375 C 16.691406 -2.050781 15.671875 -1.265625 14.359375 -0.578125 C 13.046875 0.0976562 11.734375 0.4375 10.421875 0.4375 C 7.847656 0.4375 6.007812 -0.222656 4.90625 -1.546875 C 3.8125 -2.878906 3.265625 -5.070312 3.265625 -8.125 L 3.265625 -19.46875 L 1.25 -20.03125 L 1.25 -22.328125 L 8.09375 -22.859375 L 8.125 -22.859375 L 8.9375 -22.296875 L 8.9375 -8.125 C 8.9375 -6.164062 9.175781 -4.796875 9.65625 -4.015625 C 10.132812 -3.242188 11.035156 -2.859375 12.359375 -2.859375 C 13.929688 -2.859375 15.40625 -3.472656 16.78125 -4.703125 L 16.78125 -19.46875 L 14.078125 -20.078125 L 14.078125 -22.328125 L 21.359375 -22.859375 L 21.4375 -22.859375 L 22.40625 -22.296875 L 22.40625 -2.5 L 24.65625 -2.5 L 24.625 -0.203125 C 24.519531 -0.171875 24.023438 -0.0625 23.140625 0.125 C 22.253906 0.3125 21.191406 0.40625 19.953125 0.40625 Z M 19.953125 0.40625 "/></g></g></g><g fill="#3b393d" fill-opacity="1"><g transform="translate(119.120723, 244.040435)"><g><path d="M 9.171875 -10.984375 L 2.53125 -19.546875 L 0.4375 -20.03125 L 0.4375 -22.375 L 12.0625 -22.375 L 12.0625 -20.03125 L 9.453125 -19.546875 L 12.640625 -15.09375 L 13.671875 -13.390625 L 14.71875 -15.09375 L 17.984375 -19.546875 L 15.25 -20.03125 L 15.25 -22.375 L 23.984375 -22.375 L 23.984375 -20.03125 L 21.6875 -19.546875 L 15.328125 -11.75 L 22.296875 -2.734375 L 24.5 -2.375 L 24.5 0 L 12.875 0 L 12.875 -2.375 L 15.25 -2.78125 L 12.15625 -7.484375 L 10.9375 -9.25 L 9.984375 -7.53125 L 6.671875 -2.78125 L 9.78125 -2.375 L 9.78125 0 L 0.125 0 L 0.125 -2.375 L 2.703125 -2.78125 Z M 9.171875 -10.984375 "/></g></g></g><g fill="#3b393d" fill-opacity="1"><g transform="translate(151.512859, 244.040435)"><g/></g></g><g fill="#3b393d" fill-opacity="1"><g transform="translate(169.098253, 244.040435)"><g><path d="M 4.78125 -26.875 L 1.6875 -27.40625 L 1.6875 -29.890625 L 14.5625 -29.890625 L 14.5625 -27.40625 L 10.703125 -26.875 L 10.703125 -2.859375 L 19.3125 -3.21875 L 21.84375 -10.75 L 25.109375 -10.296875 L 23.859375 0 L 1.609375 0 L 1.609375 -2.40625 L 4.78125 -2.8125 Z M 4.78125 -26.875 "/></g></g></g><g fill="#3b393d" fill-opacity="1"><g transform="translate(202.81818, 244.040435)"><g><path d="M 1.8125 -11.140625 C 1.8125 -13.660156 2.3125 -15.804688 3.3125 -17.578125 C 4.320312 -19.347656 5.671875 -20.679688 7.359375 -21.578125 C 9.046875 -22.484375 10.882812 -22.9375 12.875 -22.9375 C 16.25 -22.9375 18.851562 -21.894531 20.6875 -19.8125 C 22.53125 -17.738281 23.453125 -14.914062 23.453125 -11.34375 C 23.453125 -8.800781 22.945312 -6.632812 21.9375 -4.84375 C 20.9375 -3.0625 19.597656 -1.734375 17.921875 -0.859375 C 16.242188 0.00390625 14.398438 0.4375 12.390625 0.4375 C 9.035156 0.4375 6.429688 -0.597656 4.578125 -2.671875 C 2.734375 -4.753906 1.8125 -7.578125 1.8125 -11.140625 Z M 12.71875 -2.171875 C 15.75 -2.171875 17.265625 -5.09375 17.265625 -10.9375 C 17.265625 -14 16.898438 -16.328125 16.171875 -17.921875 C 15.453125 -19.515625 14.273438 -20.3125 12.640625 -20.3125 C 9.523438 -20.3125 7.96875 -17.390625 7.96875 -11.546875 C 7.96875 -8.484375 8.347656 -6.15625 9.109375 -4.5625 C 9.878906 -2.96875 11.082031 -2.171875 12.71875 -2.171875 Z M 12.71875 -2.171875 "/></g></g></g><g fill="#3b393d" fill-opacity="1"><g transform="translate(236.175994, 244.040435)"><g><path d="M 1.375 -6.28125 C 1.375 -8.71875 2.597656 -10.550781 5.046875 -11.78125 C 7.503906 -13.019531 10.675781 -13.648438 14.5625 -13.671875 L 14.5625 -14.609375 C 14.5625 -15.703125 14.445312 -16.554688 14.21875 -17.171875 C 13.988281 -17.796875 13.570312 -18.257812 12.96875 -18.5625 C 12.363281 -18.875 11.488281 -19.03125 10.34375 -19.03125 C 9.03125 -19.03125 7.847656 -18.863281 6.796875 -18.53125 C 5.753906 -18.195312 4.671875 -17.757812 3.546875 -17.21875 L 2.296875 -19.796875 C 2.691406 -20.140625 3.363281 -20.550781 4.3125 -21.03125 C 5.269531 -21.519531 6.40625 -21.945312 7.71875 -22.3125 C 9.039062 -22.675781 10.394531 -22.859375 11.78125 -22.859375 C 13.851562 -22.859375 15.472656 -22.585938 16.640625 -22.046875 C 17.804688 -21.515625 18.644531 -20.65625 19.15625 -19.46875 C 19.664062 -18.289062 19.921875 -16.707031 19.921875 -14.71875 L 19.921875 -2.40625 L 22.09375 -2.40625 L 22.09375 -0.15625 C 21.550781 -0.0195312 20.785156 0.109375 19.796875 0.234375 C 18.804688 0.367188 17.9375 0.4375 17.1875 0.4375 C 16.269531 0.4375 15.65625 0.300781 15.34375 0.03125 C 15.039062 -0.226562 14.890625 -0.773438 14.890625 -1.609375 L 14.890625 -2.703125 C 14.160156 -1.890625 13.21875 -1.160156 12.0625 -0.515625 C 10.914062 0.117188 9.617188 0.4375 8.171875 0.4375 C 6.929688 0.4375 5.796875 0.175781 4.765625 -0.34375 C 3.734375 -0.863281 2.910156 -1.625 2.296875 -2.625 C 1.679688 -3.632812 1.375 -4.851562 1.375 -6.28125 Z M 10.75 -2.890625 C 11.3125 -2.890625 11.953125 -3.054688 12.671875 -3.390625 C 13.398438 -3.734375 14.03125 -4.144531 14.5625 -4.625 L 14.5625 -11.21875 C 12.144531 -11.21875 10.335938 -10.804688 9.140625 -9.984375 C 7.953125 -9.171875 7.359375 -8.125 7.359375 -6.84375 C 7.359375 -5.550781 7.660156 -4.566406 8.265625 -3.890625 C 8.867188 -3.222656 9.695312 -2.890625 10.75 -2.890625 Z M 10.75 -2.890625 "/></g></g></g><g fill="#3b393d" fill-opacity="1"><g transform="translate(266.998957, 244.040435)"><g><path d="M 4.0625 -18.546875 L 1.484375 -19.265625 L 1.484375 -22.046875 L 8.171875 -22.890625 L 8.28125 -22.890625 L 9.296875 -22.09375 L 9.296875 -20.515625 L 9.25 -19.546875 C 10.1875 -20.429688 11.40625 -21.195312 12.90625 -21.84375 C 14.414062 -22.488281 15.9375 -22.8125 17.46875 -22.8125 C 19.101562 -22.8125 20.378906 -22.507812 21.296875 -21.90625 C 22.222656 -21.300781 22.890625 -20.351562 23.296875 -19.0625 C 23.703125 -17.78125 23.90625 -16.039062 23.90625 -13.84375 L 23.90625 -2.734375 L 26.359375 -2.40625 L 26.359375 0 L 15.96875 0 L 15.96875 -2.40625 L 18.140625 -2.734375 L 18.140625 -13.84375 C 18.140625 -15.238281 18.046875 -16.332031 17.859375 -17.125 C 17.671875 -17.914062 17.328125 -18.488281 16.828125 -18.84375 C 16.335938 -19.207031 15.632812 -19.390625 14.71875 -19.390625 C 13.195312 -19.390625 11.5625 -18.734375 9.8125 -17.421875 L 9.8125 -2.78125 L 12.234375 -2.40625 L 12.234375 0 L 1.734375 0 L 1.734375 -2.40625 L 4.0625 -2.78125 Z M 4.0625 -18.546875 "/></g></g></g><g fill="#3b393d" fill-opacity="1"><g transform="translate(302.449015, 244.040435)"><g><path d="M 6.28125 -3.296875 C 6.488281 -2.972656 6.972656 -2.671875 7.734375 -2.390625 C 8.503906 -2.109375 9.28125 -1.96875 10.0625 -1.96875 C 11.320312 -1.96875 12.265625 -2.226562 12.890625 -2.75 C 13.523438 -3.28125 13.84375 -3.972656 13.84375 -4.828125 C 13.84375 -5.710938 13.453125 -6.429688 12.671875 -6.984375 C 11.890625 -7.535156 10.578125 -8.210938 8.734375 -9.015625 L 7.609375 -9.5 C 5.753906 -10.269531 4.367188 -11.207031 3.453125 -12.3125 C 2.546875 -13.414062 2.09375 -14.835938 2.09375 -16.578125 C 2.09375 -17.785156 2.453125 -18.863281 3.171875 -19.8125 C 3.898438 -20.769531 4.921875 -21.515625 6.234375 -22.046875 C 7.546875 -22.585938 9.0625 -22.859375 10.78125 -22.859375 C 12.039062 -22.859375 13.117188 -22.773438 14.015625 -22.609375 C 14.921875 -22.453125 15.867188 -22.238281 16.859375 -21.96875 C 17.390625 -21.78125 17.789062 -21.671875 18.0625 -21.640625 L 18.0625 -16.375 L 14.890625 -16.375 L 13.96875 -19.4375 C 13.800781 -19.695312 13.4375 -19.9375 12.875 -20.15625 C 12.3125 -20.375 11.664062 -20.484375 10.9375 -20.484375 C 9.84375 -20.484375 8.96875 -20.25 8.3125 -19.78125 C 7.65625 -19.3125 7.328125 -18.660156 7.328125 -17.828125 C 7.328125 -17.078125 7.550781 -16.453125 8 -15.953125 C 8.457031 -15.453125 8.953125 -15.066406 9.484375 -14.796875 C 10.023438 -14.535156 11.019531 -14.097656 12.46875 -13.484375 C 13.914062 -12.859375 15.113281 -12.265625 16.0625 -11.703125 C 17.019531 -11.140625 17.8125 -10.410156 18.4375 -9.515625 C 19.070312 -8.617188 19.390625 -7.523438 19.390625 -6.234375 C 19.390625 -4.253906 18.609375 -2.644531 17.046875 -1.40625 C 15.492188 -0.175781 13.257812 0.4375 10.34375 0.4375 C 8.96875 0.4375 7.738281 0.316406 6.65625 0.078125 C 5.570312 -0.160156 4.316406 -0.484375 2.890625 -0.890625 L 2.015625 -1.171875 L 2.015625 -6.484375 L 5.34375 -6.484375 Z M 6.28125 -3.296875 "/></g></g></g><path fill="#3b393d" d="M 111.289062 168.5 L 111.289062 161.339844 L 118.457031 161.339844 L 118.457031 168.5 L 111.289062 168.5 " fill-opacity="1" fill-rule="nonzero"/><path fill="#3b393d" d="M 111.289062 168.5 L 111.289062 161.339844 L 118.457031 161.339844 L 118.457031 168.5 L 111.289062 168.5 " fill-opacity="1" fill-rule="nonzero"/><path fill="#3b393d" d="M 121.988281 168.5 L 121.988281 161.339844 L 129.148438 161.339844 L 129.148438 168.5 L 121.988281 168.5 " fill-opacity="1" fill-rule="nonzero"/><path fill="#3b393d" d="M 121.988281 168.5 L 121.988281 161.339844 L 129.148438 161.339844 L 129.148438 168.5 L 121.988281 168.5 " fill-opacity="1" fill-rule="nonzero"/><path fill="#3b393d" d="M 121.988281 168.5 L 121.988281 161.339844 L 129.148438 161.339844 L 129.148438 168.5 L 121.988281 168.5 " fill-opacity="1" fill-rule="nonzero"/><path fill="#3b393d" d="M 111.289062 179.164062 L 111.289062 172.003906 L 118.457031 172.003906 L 118.457031 179.164062 L 111.289062 179.164062 " fill-opacity="1" fill-rule="nonzero"/><path fill="#3b393d" d="M 111.289062 179.164062 L 111.289062 172.003906 L 118.457031 172.003906 L 118.457031 179.164062 L 111.289062 179.164062 " fill-opacity="1" fill-rule="nonzero"/><path fill="#3b393d" d="M 121.988281 179.164062 L 121.988281 172.003906 L 129.148438 172.003906 L 129.148438 179.164062 L 121.988281 179.164062 " fill-opacity="1" fill-rule="nonzero"/><path fill="#3b393d" d="M 121.988281 179.164062 L 121.988281 172.003906 L 129.148438 172.003906 L 129.148438 179.164062 L 121.988281 179.164062 " fill-opacity="1" fill-rule="nonzero"/><path fill="#3b393d" d="M 121.988281 179.164062 L 121.988281 172.003906 L 129.148438 172.003906 L 129.148438 179.164062 L 121.988281 179.164062 " fill-opacity="1" fill-rule="nonzero"/><path fill="#3b393d" d="M 245.941406 168.5 L 245.941406 161.339844 L 253.101562 161.339844 L 253.101562 168.5 L 245.941406 168.5 " fill-opacity="1" fill-rule="nonzero"/><path fill="#3b393d" d="M 245.941406 168.5 L 245.941406 161.339844 L 253.101562 161.339844 L 253.101562 168.5 L 245.941406 168.5 " fill-opacity="1" fill-rule="nonzero"/><path fill="#3b393d" d="M 245.941406 168.5 L 245.941406 161.339844 L 253.101562 161.339844 L 253.101562 168.5 L 245.941406 168.5 " fill-opacity="1" fill-rule="nonzero"/><path fill="#3b393d" d="M 256.632812 168.5 L 256.632812 161.339844 L 263.792969 161.339844 L 263.792969 168.5 L 256.632812 168.5 " fill-opacity="1" fill-rule="nonzero"/><path fill="#3b393d" d="M 245.941406 179.164062 L 245.941406 172.003906 L 253.101562 172.003906 L 253.101562 179.164062 L 245.941406 179.164062 " fill-opacity="1" fill-rule="nonzero"/><path fill="#3b393d" d="M 245.941406 179.164062 L 245.941406 172.003906 L 253.101562 172.003906 L 253.101562 179.164062 L 245.941406 179.164062 " fill-opacity="1" fill-rule="nonzero"/><path fill="#3b393d" d="M 245.941406 179.164062 L 245.941406 172.003906 L 253.101562 172.003906 L 253.101562 179.164062 L 245.941406 179.164062 " fill-opacity="1" fill-rule="nonzero"/><path fill="#3b393d" d="M 256.632812 179.164062 L 256.632812 172.007812 L 263.792969 172.007812 L 263.792969 179.164062 L 256.632812 179.164062 " fill-opacity="1" fill-rule="nonzero"/><path fill="#3b393d" d="M 178.617188 145.457031 L 178.617188 138.300781 L 185.773438 138.300781 L 185.773438 145.457031 L 178.617188 145.457031 " fill-opacity="1" fill-rule="nonzero"/><path fill="#3b393d" d="M 178.617188 145.457031 L 178.617188 138.300781 L 185.773438 138.300781 L 185.773438 145.457031 L 178.617188 145.457031 " fill-opacity="1" fill-rule="nonzero"/><path fill="#3b393d" d="M 178.617188 145.457031 L 178.617188 138.300781 L 185.773438 138.300781 L 185.773438 145.457031 L 178.617188 145.457031 " fill-opacity="1" fill-rule="nonzero"/><path fill="#3b393d" d="M 189.308594 145.457031 L 189.308594 138.300781 L 196.472656 138.300781 L 196.472656 145.457031 L 189.308594 145.457031 " fill-opacity="1" fill-rule="nonzero"/><path fill="#3b393d" d="M 189.308594 145.457031 L 189.308594 138.300781 L 196.472656 138.300781 L 196.472656 145.457031 L 189.308594 145.457031 " fill-opacity="1" fill-rule="nonzero"/><path fill="#3b393d" d="M 189.308594 145.457031 L 189.308594 138.300781 L 196.472656 138.300781 L 196.472656 145.457031 L 189.308594 145.457031 " fill-opacity="1" fill-rule="nonzero"/><path fill="#3b393d" d="M 178.617188 156.125 L 178.617188 148.964844 L 185.773438 148.964844 L 185.773438 156.125 L 178.617188 156.125 " fill-opacity="1" fill-rule="nonzero"/><path fill="#3b393d" d="M 178.617188 156.125 L 178.617188 148.964844 L 185.773438 148.964844 L 185.773438 156.125 L 178.617188 156.125 " fill-opacity="1" fill-rule="nonzero"/><path fill="#3b393d" d="M 178.617188 156.125 L 178.617188 148.964844 L 185.773438 148.964844 L 185.773438 156.125 L 178.617188 156.125 " fill-opacity="1" fill-rule="nonzero"/><path fill="#3b393d" d="M 189.308594 156.125 L 189.308594 148.964844 L 196.472656 148.964844 L 196.472656 156.125 L 189.308594 156.125 " fill-opacity="1" fill-rule="nonzero"/><path fill="#3b393d" d="M 189.308594 156.125 L 189.308594 148.964844 L 196.472656 148.964844 L 196.472656 156.125 L 189.308594 156.125 " fill-opacity="1" fill-rule="nonzero"/><path fill="#3b393d" d="M 189.308594 156.125 L 189.308594 148.964844 L 196.472656 148.964844 L 196.472656 156.125 L 189.308594 156.125 " fill-opacity="1" fill-rule="nonzero"/><g clip-path="url(#29c2f633b9)"><path fill="#d6a33e" d="M 212.527344 158.660156 L 201.28125 169.734375 L 187.546875 183.269531 L 176.566406 172.457031 L 169.609375 165.605469 L 152.332031 148.585938 L 169.609375 130.257812 L 176.566406 122.878906 L 187.546875 111.238281 L 201.28125 125.820312 L 212.527344 137.753906 L 222.75 148.59375 Z M 286.691406 160.234375 L 261.972656 126.910156 L 254.875 117.34375 L 254.867188 117.351562 L 254.402344 117.808594 L 237.246094 134.492188 L 230.855469 140.707031 L 230.820312 140.664062 L 226.003906 135.554688 L 212.527344 121.257812 L 208.5 116.996094 L 201.28125 109.335938 L 187.546875 94.761719 L 187.539062 94.761719 L 176.566406 106.394531 L 176.566406 106.402344 L 169.609375 113.773438 L 159.328125 124.675781 L 151.84375 132.621094 L 144.226562 140.699219 L 137.707031 134.363281 L 133.929688 130.6875 L 120.210938 117.34375 L 120.167969 117.410156 L 88.261719 160.378906 L 78.03125 174.167969 L 88.261719 164.207031 L 120.167969 133.15625 L 120.210938 133.109375 L 137.707031 150.273438 L 151.84375 164.132812 L 169.609375 181.566406 L 176.566406 188.390625 L 179.460938 191.226562 L 183.417969 195.113281 L 191.675781 195.113281 L 195.628906 191.226562 L 201.28125 185.683594 L 212.527344 174.65625 L 226.003906 161.441406 L 237.246094 150.40625 L 254.875 133.109375 L 261.972656 140.023438 L 286.691406 164.066406 L 296.925781 174.027344 L 286.691406 160.234375 " fill-opacity="1" fill-rule="nonzero"/></g><path fill="#3b393d" d="M 175.089844 105.839844 L 168.546875 112.773438 L 158.269531 123.675781 L 150.78125 131.625 L 144.175781 138.625 L 138.71875 133.320312 L 134.941406 129.648438 L 129.113281 123.980469 L 132.6875 125.964844 L 133.007812 126.148438 L 137 128.375 L 140.660156 130.402344 L 141.480469 130.863281 L 142.230469 130.300781 L 152.710938 122.503906 L 170.476562 109.273438 L 175.089844 105.839844 " fill-opacity="1" fill-rule="nonzero"/><path fill="#3b393d" d="M 247.582031 122.410156 L 236.234375 133.445312 L 230.898438 138.625 L 227.058594 134.558594 L 213.585938 120.261719 L 209.558594 115.992188 L 203.523438 109.589844 L 211.613281 116.152344 L 225.085938 127.078125 L 229.015625 130.265625 L 229.730469 130.839844 L 230.550781 130.445312 L 237.871094 127 L 247.582031 122.410156 " fill-opacity="1" fill-rule="nonzero"/><path fill="#3b393d" d="M 237.246094 134.484375 L 237.246094 134.492188 L 230.855469 140.707031 Z M 237.246094 134.484375 " fill-opacity="1" fill-rule="nonzero"/><path fill="#3b393d" d="M 254.402344 117.808594 L 237.246094 134.492188 L 237.246094 134.484375 Z M 254.402344 117.808594 " fill-opacity="1" fill-rule="nonzero"/></svg>